<?xml version="1.0" encoding="iso-8859-1"?>
<!-- Generator: Adobe Illustrator 19.0.0, SVG Export Plug-In . SVG Version: 6.00 Build 0)  -->
<svg version="1.1" id="Layer_1" xmlns="http://www.w3.org/2000/svg" xmlns:xlink="http://www.w3.org/1999/xlink" x="0px" y="0px"
	 viewBox="0 0 393.374 393.374" style="enable-background:new 0 0 393.374 393.374;" xml:space="preserve">
<circle style="fill:#FBD303;" cx="196.687" cy="195.426" r="195.426"/>
<path style="fill:#29B36F;" d="M288.873,367.838c-27.41,14.739-58.828,23.079-92.186,23.079c-33.293,0-64.646-8.404-92.186-23.014
	l18.747-70.077l37.624-12.218c10.925,5.107,23.079,7.952,35.879,7.952c12.735,0,24.889-2.844,35.814-7.952l37.56,12.218
	L288.873,367.838z"/>
<path style="fill:#393D47;" d="M225.261,288.646l-28.897,104.727l-28.251-104.727c8.986,3.232,18.618,4.978,28.638,4.978
	C206.707,293.56,216.339,291.814,225.261,288.646z"/>
<g>
	<path style="fill:#A8D490;" d="M166.885,283.733l-20.299,44.283l48.679,62.836c0.388,0,0.84,0,1.228,0L166.885,283.733z"/>
	<path style="fill:#A8D490;" d="M197.075,390.853c0.388,0,0.84,0,1.228,0l48.679-62.836l-20.299-44.283L197.075,390.853z"/>
</g>
<ellipse style="fill:#FFE6D2;" cx="196.752" cy="201.05" rx="88.178" ry="92.509"/>
<path style="fill:#F8B517;" d="M175.741,192.84c-4.461-2.392-7.499-6.788-7.499-11.895l-1.875-8.469l-1.875,8.469
	c0,5.107-3.038,9.438-7.499,11.895c-4.331,2.392-7.176,6.206-7.176,10.602s2.844,8.21,7.176,10.602
	c4.461,2.392,7.499,6.788,7.499,11.895l1.875,8.469l1.875-8.469c0-5.107,3.038-9.438,7.499-11.895
	c4.331-2.392,7.176-6.206,7.176-10.602S180.073,195.168,175.741,192.84z"/>
<circle style="fill:#333842;" cx="166.497" cy="203.442" r="5.818"/>
<path style="fill:#F8B517;" d="M236.315,192.84c-4.461-2.392-7.499-6.788-7.499-11.895l-1.875-8.469l-1.875,8.469
	c0,5.107-3.038,9.438-7.499,11.895c-4.331,2.392-7.176,6.206-7.176,10.602s2.844,8.21,7.176,10.602
	c4.461,2.392,7.499,6.788,7.499,11.895l1.875,8.469l1.875-8.469c0-5.107,3.038-9.438,7.499-11.895
	c4.331-2.392,7.176-6.206,7.176-10.602S240.646,195.168,236.315,192.84z"/>
<circle style="fill:#333842;" cx="227.071" cy="203.442" r="5.818"/>
<path style="fill:#F0582F;" d="M307.038,177.519c7.952-3.814,13.511-11.895,13.511-21.333c0-7.758-3.685-14.481-9.438-18.747
	c2.844-3.426,4.719-7.758,4.719-12.606c0-9.632-7.046-17.648-16.162-19.135c1.228-3.038,2.004-6.271,2.004-9.762
	c0-12.541-9.244-22.82-21.333-24.501c0-0.129,0-0.259,0-0.388c0-15.709-12.735-28.444-28.444-28.444
	c-6.723,0-12.8,2.457-17.713,6.335c-3.943-17.131-19.265-29.996-37.56-29.996s-33.616,12.8-37.495,29.996
	c-4.848-3.943-10.99-6.335-17.713-6.335c-15.709,0-28.444,12.735-28.444,28.444c0,0.129,0,0.259,0,0.388
	c-12.024,1.681-21.333,11.96-21.333,24.501c0,3.491,0.711,6.723,2.004,9.762c-9.18,1.616-16.162,9.568-16.162,19.135
	c0,4.784,1.745,9.115,4.719,12.606c-5.689,4.331-9.438,11.119-9.438,18.747c0,9.438,5.56,17.455,13.511,21.333
	c-7.952,3.814-13.511,11.895-13.511,21.333c0,11.507,8.21,21.01,19.006,23.208c-3.879,2.65-6.465,7.046-6.465,12.024
	c0,7.952,6.465,14.481,14.481,14.481c7.952,0,14.481-6.465,14.481-14.481c0-6.012-3.62-11.119-8.857-13.382
	c8.663-3.556,14.739-11.96,14.739-21.85c0-2.521-0.517-4.913-1.228-7.176c9.891-0.646,17.778-8.727,17.778-18.877
	c0-0.259-0.065-0.388-0.065-0.646c1.939,0.388,3.943,0.646,5.947,0.646c12.412,0,23.014-7.758,27.41-18.618
	c7.111,6.335,16.356,10.279,26.634,10.279s19.523-3.943,26.634-10.279c4.331,10.925,14.998,18.618,27.41,18.618
	c2.004,0,4.008-0.259,5.947-0.646c0,0.259-0.065,0.388-0.065,0.646c0,10.02,7.887,18.23,17.778,18.877
	c-0.776,2.327-1.228,4.719-1.228,7.176c0,9.891,6.077,18.36,14.739,21.85c-5.236,2.133-8.857,7.37-8.857,13.382
	c0,7.952,6.465,14.481,14.481,14.481c7.952,0,14.481-6.465,14.481-14.481c0-5.042-2.521-9.438-6.465-12.024
	c10.796-2.133,19.006-11.766,19.006-23.208C320.549,189.414,314.99,181.269,307.038,177.519z"/>
<ellipse style="fill:#FFFFFC;" cx="196.752" cy="265.503" rx="37.883" ry="28.057"/>
<circle style="fill:#F0582F;" cx="196.752" cy="237.446" r="17.325"/>
<path style="fill:#646B79;" d="M196.752,282.764c-24.242,0-43.96-14.998-43.96-33.487c0-2.392,1.939-4.331,4.331-4.331
	c2.392,0,4.331,1.939,4.331,4.331c0,13.705,15.838,24.76,35.297,24.76s35.297-11.119,35.297-24.76c0-2.392,1.939-4.331,4.331-4.331
	c2.392,0,4.331,1.939,4.331,4.331C240.711,267.766,221.059,282.764,196.752,282.764z"/>
<path style="fill:#333842;" d="M277.107,25.083l-68.396-13.317c-6.012-1.164-11.895,2.78-13.123,8.792l-15.774,80.679l90.311,17.648
	l15.774-80.679C287.127,32.129,283.184,26.246,277.107,25.083z"/>
<rect x="217.72" y="55.183" transform="matrix(0.1916 -0.9815 0.9815 0.1916 83.9851 304.3896)" style="fill:#BDBDBE;" width="18.101" height="92.059"/>
<path style="fill:#333842;" d="M309.042,111.192c-56.113,7.499-113.131-3.62-162.263-31.677c-2.392-1.422-5.43-0.711-6.788,1.616
	c-1.358,2.327-0.517,5.301,2.004,6.788c51.006,29.156,110.222,40.727,168.404,32.84c2.844-0.388,4.784-2.844,4.396-5.56
	C314.279,112.679,311.758,110.869,309.042,111.192z"/>
<g>
</g>
<g>
</g>
<g>
</g>
<g>
</g>
<g>
</g>
<g>
</g>
<g>
</g>
<g>
</g>
<g>
</g>
<g>
</g>
<g>
</g>
<g>
</g>
<g>
</g>
<g>
</g>
<g>
</g>
</svg>
